# xmcd
#
# Track frame offsets: 
#        150
#        15831
#        32919
#        49276
#        69596
#        88342
#        116765
#        135713
#        158514
#        181720
#        205312
#        224657
#        248467
#        269846
#        298267
#        317511
#
# Disc length: 4555 seconds
#
# Revision: 0
# Processed by: cddbd v1.5.2PL0 Copyright (c) Steve Scherf et al.
# Submitted via: ExactAudioCopyFreeDBPlugin 1.0
#
DISCID=ef11c910
DTITLE=The Border Band - It's A Short Life
DYEAR=2011
DGENRE=Country
TTITLE0=A Long Long Way
TTITLE1=Gingerbread Man
TTITLE2=Coleen
TTITLE3=It's A Short Life
TTITLE4=Another Cold, Cold Beer
TTITLE5=Down By The River
TTITLE6=Gravedigger's Wage
TTITLE7=Breakaway
TTITLE8=Bad Seed
TTITLE9=Because Of You
TTITLE10=Stickhorse Blues
TTITLE11=Go Down Ol' Hanna
TTITLE12=Sky Road
TTITLE13=Bottom Of The Mine
TTITLE14=There liz A Diamond
TTITLE15=Jaloeb Corley
EXTD=
EXTT0=
EXTT1=
EXTT2=
EXTT3=
EXTT4=
EXTT5=
EXTT6=
EXTT7=
EXTT8=
EXTT9=
EXTT10=
EXTT11=
EXTT12=
EXTT13=
EXTT14=
EXTT15=
PLAYORDER=
